<?xml version="1.0" encoding="UTF-8" standalone="no"?>
<!-- Created with Inkscape (http://www.inkscape.org/) -->

<svg
   width="168.51094mm"
   height="39.411709mm"
   viewBox="0 0 168.51094 39.411709"
   version="1.1"
   id="svg1"
   sodipodi:docname="banner.svg"
   xmlns:inkscape="http://www.inkscape.org/namespaces/inkscape"
   xmlns:sodipodi="http://sodipodi.sourceforge.net/DTD/sodipodi-0.dtd"
   xmlns="http://www.w3.org/2000/svg"
   xmlns:svg="http://www.w3.org/2000/svg">
  <sodipodi:namedview
     id="namedview1"
     pagecolor="#ffffff"
     bordercolor="#000000"
     borderopacity="0.25"
     inkscape:showpageshadow="2"
     inkscape:pageopacity="0.0"
     inkscape:pagecheckerboard="0"
     inkscape:deskcolor="#d1d1d1"
     inkscape:document-units="mm">
    <inkscape:page
       x="-1.0801565e-21"
       y="0"
       width="168.51096"
       height="39.411709"
       id="page2"
       margin="0"
       bleed="0" />
  </sodipodi:namedview>
  <defs
     id="defs1" />
  <g
     id="layer1"
     transform="translate(-13.37256,-61.324481)">
    <path
       id="path1"
       style="fill:#116bcb;fill-opacity:1;stroke:none;stroke-width:0.170846;stroke-opacity:1"
       d="m 55.729417,68.407385 a 17.060615,16.203987 0 0 0 -1.4478,0.05825 l -0.41782,1.980118 a 14.358391,14.286659 0 0 0 -2.235264,0.473976 l -1.208287,-1.707846 h -3.34e-4 a 17.060615,16.203987 0 0 0 -2.697903,1.091077 l 0.464984,2.151534 a 14.358391,14.286659 0 0 0 -1.810757,1.317082 l -2.045922,-1.216563 a 17.060615,16.203987 0 0 0 -1.97601,1.99676 l 1.494635,2.036368 a 14.358391,14.286659 0 0 0 -1.089197,1.893242 L 40.0789,78.160513 a 17.060615,16.203987 0 0 0 -0.909894,2.555612 l 2.425269,1.385317 a 14.358391,14.286659 0 0 0 -0.218107,2.120246 l -2.701248,0.828793 a 17.060615,16.203987 0 0 0 0.314448,2.687753 l 2.797256,0.285916 a 14.358391,14.286659 0 0 0 0.649637,1.987439 l -2.015482,1.752116 a 17.060615,16.203987 0 0 0 1.505339,2.370883 l 2.436643,-0.794173 a 14.358391,14.286659 0 0 0 1.383909,1.539416 l -0.994527,2.135554 a 17.060615,16.203987 0 0 0 2.455709,1.63363 l 1.655539,-1.4905 a 14.358391,14.286659 0 0 0 1.88569,0.85243 l -0.03145,2.089295 a 17.060615,16.203987 0 0 0 2.979906,0.59979 l 0.8236,-1.852635 a 14.358391,14.286659 0 0 0 1.20828,0.0505 14.358391,14.286659 0 0 0 0.87978,-0.027 l 0.80118,1.865295 a 17.060615,16.203987 0 0 0 2.98191,-0.53789 l -0.004,-2.072985 a 14.358391,14.286659 0 0 0 1.95194,-0.83146 l 1.63078,1.50582 a 17.060615,16.203987 0 0 0 2.46173,-1.56973 l -0.95808,-2.126166 a 14.358391,14.286659 0 0 0 1.47858,-1.581692 l 2.41756,0.821469 a 17.060615,16.203987 0 0 0 1.52108,-2.302983 l -1.98003,-1.765097 a 14.358391,14.286659 0 0 0 0.72056,-2.092285 l 2.79592,-0.250304 a 17.060615,16.203987 0 0 0 0.34656,-2.621849 l -2.6872,-0.861744 a 14.358391,14.286659 0 0 0 -0.20506,-2.249058 14.358391,14.286659 0 0 0 0,-3.34e-4 l 2.441,-1.354028 a 17.060615,16.203987 0 0 0 -0.86274,-2.506684 l -2.69255,0.288248 a 14.358391,14.286659 0 0 0 -1.12966,-1.998091 l 1.51838,-2.015066 a 17.060615,16.203987 0 0 0 -1.92918,-1.974458 l -2.07002,1.195925 a 14.358391,14.286659 0 0 0 -1.86661,-1.369672 l 0.49107,-2.140216 a 17.060615,16.203987 0 0 0 -2.6698,-1.091079 l -1.23404,1.69886 h -3.4e-4 a 14.358391,14.286659 0 0 0 -2.26037,-0.484966 l -0.39172,-1.979119 a 17.060615,16.203987 0 0 0 -3.3e-4,0 17.060615,16.203987 0 0 0 -1.49565,-0.06224 z m -0.38771,11.248954 a 4.7861305,4.76222 0 0 1 4.78631,4.762065 4.7861305,4.76222 0 0 1 -4.78631,4.762397 4.7861305,4.76222 0 0 1 -4.785979,-4.762397 4.7861305,4.76222 0 0 1 4.785979,-4.762065 z" />
    <path
       id="path120"
       style="fill:#116bcb;fill-opacity:1;stroke:none;stroke-width:0.145138;stroke-opacity:1"
       d="m 27.683864,61.324481 a 14.316443,13.935861 0 0 0 -1.214927,0.0501 l -0.350609,1.702953 a 12.048867,12.286909 0 0 0 -1.875724,0.407632 l -1.013935,-1.468797 h -2.81e-4 a 14.316443,13.935861 0 0 0 -2.263948,0.938356 l 0.39019,1.850376 a 12.048867,12.286909 0 0 0 -1.519499,1.132726 l -1.71684,-1.046275 a 14.316443,13.935861 0 0 0 -1.658171,1.717265 l 1.254225,1.751331 a 12.048867,12.286909 0 0 0 -0.914001,1.628241 l -2.249632,-0.275956 a 14.316443,13.935861 0 0 0 -0.763539,2.197895 l 2.035167,1.191406 a 12.048867,12.286909 0 0 0 -0.183024,1.82347 l -2.266756,0.712787 a 14.316443,13.935861 0 0 0 0.263869,2.311539 l 2.347322,0.245896 a 12.048867,12.286909 0 0 0 0.545144,1.709251 L 14.8376,81.411539 a 14.316443,13.935861 0 0 0 1.263208,2.039025 l 2.044713,-0.683016 a 12.048867,12.286909 0 0 0 1.161308,1.323948 l -0.834559,1.836636 a 14.316443,13.935861 0 0 0 2.060713,1.404959 l 1.389249,-1.281868 a 12.048867,12.286909 0 0 0 1.582378,0.733105 l -0.02639,1.796849 a 14.316443,13.935861 0 0 0 2.500591,0.515837 l 0.691115,-1.593315 a 12.048867,12.286909 0 0 0 1.013935,0.04348 12.048867,12.286909 0 0 0 0.738274,-0.02322 l 0.672309,1.604198 a 14.316443,13.935861 0 0 0 2.502274,-0.462592 l -0.0042,-1.782824 a 12.048867,12.286909 0 0 0 1.63796,-0.715076 l 1.368475,1.295039 a 14.316443,13.935861 0 0 0 2.065767,-1.349993 l -0.803687,-1.828629 a 12.048867,12.286909 0 0 0 1.240751,-1.360305 l 2.028712,0.706491 a 14.316443,13.935861 0 0 0 1.2764,-1.98063 l -1.661549,-1.518027 a 12.048867,12.286909 0 0 0 0.604658,-1.799421 l 2.34619,-0.21527 a 14.316443,13.935861 0 0 0 0.290822,-2.254858 l -2.254976,-0.741121 a 12.048867,12.286909 0 0 0 -0.172079,-1.934252 12.048867,12.286909 0 0 0 0,-2.82e-4 l 2.048357,-1.164502 a 14.316443,13.935861 0 0 0 -0.72395,-2.155797 l -2.25946,0.2479 A 12.048867,12.286909 0 0 0 37.67697,68.395649 l 1.274155,-1.733011 a 14.316443,13.935861 0 0 0 -1.618871,-1.698087 l -1.73705,1.028528 a 12.048867,12.286909 0 0 0 -1.56641,-1.177954 l 0.412087,-1.840644 a 14.316443,13.935861 0 0 0 -2.240347,-0.93836 l -1.035549,1.461064 h -2.82e-4 a 12.048867,12.286909 0 0 0 -1.896777,-0.41708 l -0.328715,-1.702094 a 14.316443,13.935861 0 0 0 -2.8e-4,0 14.316443,13.935861 0 0 0 -1.255067,-0.05353 z m -0.162533,4.124702 a 9.6210263,9.8111014 0 0 1 9.621153,9.810948 9.6210263,9.8111014 0 0 1 -9.621153,9.811232 9.6210263,9.8111014 0 0 1 -9.621154,-9.811232 9.6210263,9.8111014 0 0 1 9.621154,-9.810948 z" />
    <text
       xml:space="preserve"
       style="font-style:normal;font-variant:normal;font-weight:normal;font-stretch:normal;font-size:22.0292px;font-family:sans-serif;-inkscape-font-specification:sans-serif;text-align:start;writing-mode:lr-tb;direction:ltr;text-anchor:start;fill:none;fill-opacity:1;stroke:#000000;stroke-width:0.644;stroke-dasharray:none;stroke-opacity:1"
       x="73.964096"
       y="90.842049"
       id="text121"
       transform="scale(0.97381129,1.026893)"><tspan
         id="tspan121"
         style="font-style:normal;font-variant:normal;font-weight:normal;font-stretch:normal;font-size:22.0292px;font-family:sans-serif;-inkscape-font-specification:sans-serif;fill:#ffffff;fill-opacity:1;stroke:#000000;stroke-width:0.644;stroke-dasharray:none;stroke-opacity:1"
         x="73.964096"
         y="90.842049">L.E.G.O.S.</tspan></text>
  </g>
</svg>
