<?xml version="1.0" encoding="UTF-8" standalone="no"?>
<!-- Created with Inkscape (http://www.inkscape.org/) -->

<svg
   width="69.19381mm"
   height="65.599823mm"
   viewBox="0 0 69.19381 65.599823"
   version="1.1"
   id="svg1"
   xmlns="http://www.w3.org/2000/svg"
   xmlns:svg="http://www.w3.org/2000/svg">
  <defs
     id="defs1">
    <linearGradient
       id="swatch145">
      <stop
         style="stop-color:#fff201;stop-opacity:1;"
         offset="0"
         id="stop145" />
    </linearGradient>
    <linearGradient
       id="swatch129">
      <stop
         style="stop-color:#a20000;stop-opacity:1;"
         offset="0"
         id="stop129" />
    </linearGradient>
    <linearGradient
       id="swatch127">
      <stop
         style="stop-color:#009b00;stop-opacity:1;"
         offset="0"
         id="stop128" />
    </linearGradient>
  </defs>
  <g
     id="layer1"
     transform="translate(-54.833139,-127.06597)">
    <path
       id="path122"
       style="fill:#116bcb;fill-opacity:1;stroke:none;stroke-width:0.34667;stroke-opacity:1"
       d="m 89.439108,127.06597 a 34.618378,32.880161 0 0 0 -2.93779,0.11831 l -0.84781,4.01794 a 29.135187,28.989635 0 0 0 -4.53567,0.96175 l -2.451781,-3.46545 h -6.81e-4 a 34.618378,32.880161 0 0 0 -5.474422,2.21397 l 0.943518,4.36575 a 29.135187,28.989635 0 0 0 -3.67428,2.67255 l -4.151463,-2.46858 a 34.618378,32.880161 0 0 0 -4.009601,4.0517 l 3.032823,4.13206 a 29.135187,28.989635 0 0 0 -2.210132,3.84167 l -5.439806,-0.65109 a 34.618378,32.880161 0 0 0 -1.846301,5.18571 l 4.921211,2.81099 a 29.135187,28.989635 0 0 0 -0.442571,4.30226 l -5.48121,1.68175 a 34.618378,32.880161 0 0 0 0.638058,5.45381 l 5.676026,0.58019 a 29.135187,28.989635 0 0 0 1.318204,4.03276 l -4.089695,3.5553 a 34.618378,32.880161 0 0 0 3.054543,4.81085 l 4.944292,-1.61147 a 29.135187,28.989635 0 0 0 2.808143,3.12369 l -2.018034,4.33335 a 34.618378,32.880161 0 0 0 4.982978,3.31484 l 3.359322,-3.02443 a 29.135187,28.989635 0 0 0 3.826329,1.72971 l -0.06382,4.23947 a 34.618378,32.880161 0 0 0 6.04665,1.21707 l 1.67119,-3.75927 a 29.135187,28.989635 0 0 0 2.45178,0.10252 29.135187,28.989635 0 0 0 1.78519,-0.0548 l 1.62571,3.78494 a 34.618378,32.880161 0 0 0 6.05071,-1.09146 l -0.008,-4.20639 a 29.135187,28.989635 0 0 0 3.960762,-1.68712 l 3.30908,3.05551 a 34.618378,32.880161 0 0 0 4.99528,-3.18522 l -1.94407,-4.31428 a 29.135187,28.989635 0 0 0 3.00024,-3.20949 l 4.90557,1.6669 a 34.618378,32.880161 0 0 0 3.08648,-4.67308 l -4.01776,-3.58164 a 29.135187,28.989635 0 0 0 1.46212,-4.24554 l 5.67332,-0.50789 a 34.618378,32.880161 0 0 0 0.70322,-5.32012 l -5.45271,-1.74859 a 29.135187,28.989635 0 0 0 -0.4161,-4.56366 29.135187,28.989635 0 0 0 0,-6.7e-4 l 4.95313,-2.74751 a 34.618378,32.880161 0 0 0 -1.75062,-5.08642 l -5.46356,0.58491 a 29.135187,28.989635 0 0 0 -2.29223,-4.0544 l 3.081,-4.08886 a 34.618378,32.880161 0 0 0 -3.91458,-4.00657 l -4.20036,2.42671 a 29.135187,28.989635 0 0 0 -3.78761,-2.77926 l 0.99645,-4.34281 a 34.618378,32.880161 0 0 0 -5.41743,-2.21399 l -2.504042,3.44723 h -6.9e-4 a 29.135187,28.989635 0 0 0 -4.58661,-0.98407 l -0.79486,-4.01591 a 34.618378,32.880161 0 0 0 -6.7e-4,0 34.618378,32.880161 0 0 0 -3.03488,-0.12611 z m -0.78672,22.82571 a 9.7117298,9.6632119 0 0 1 9.71209,9.6629 9.7117298,9.6632119 0 0 1 -9.71209,9.66358 9.7117298,9.6632119 0 0 1 -9.71142,-9.66358 9.7117298,9.6632119 0 0 1 9.71142,-9.6629 z" />
    <text
       xml:space="preserve"
       style="font-style:normal;font-variant:normal;font-weight:normal;font-stretch:normal;font-size:10.7637px;font-family:'.SF Armenian';-inkscape-font-specification:'.SF Armenian';text-align:start;writing-mode:lr-tb;direction:ltr;text-anchor:start;fill:none;fill-opacity:1;stroke:#fff201;stroke-width:1.12943;stroke-dasharray:none;stroke-opacity:1"
       x="68.634506"
       y="143.34708"
       id="text139"
       transform="scale(0.97381129,1.026893)"><tspan
         id="tspan139"
         style="font-style:normal;font-variant:normal;font-weight:normal;font-stretch:normal;font-size:10.7637px;font-family:'.SF Armenian';-inkscape-font-specification:'.SF Armenian';fill:#ffffff;fill-opacity:1;stroke:#fff201;stroke-width:1.12943;stroke-dasharray:none;stroke-opacity:1"
         x="68.634506"
         y="143.34708">L.E.G.O.S.</tspan></text>
    <text
       xml:space="preserve"
       style="font-style:normal;font-variant:normal;font-weight:normal;font-stretch:normal;font-size:10.7637px;font-family:'.SF Armenian';-inkscape-font-specification:'.SF Armenian';text-align:start;writing-mode:lr-tb;direction:ltr;text-anchor:start;fill:none;fill-opacity:1;stroke:#000000;stroke-width:0.314358;stroke-linejoin:miter;stroke-dasharray:none;stroke-opacity:1"
       x="68.567291"
       y="143.34708"
       id="text122"
       transform="scale(0.97381129,1.026893)"><tspan
         id="tspan122"
         style="font-style:normal;font-variant:normal;font-weight:normal;font-stretch:normal;font-size:10.7637px;font-family:'.SF Armenian';-inkscape-font-specification:'.SF Armenian';fill:#ffffff;fill-opacity:1;stroke:#000000;stroke-width:0.314358;stroke-linejoin:miter;stroke-dasharray:none;stroke-opacity:1"
         x="68.567291"
         y="143.34708">L.E.G.O.S.</tspan></text>
    <path
       style="font-size:4.23333px;font-family:'.SF Armenian';-inkscape-font-specification:'.SF Armenian';fill:#ffffff;stroke:#000000;stroke-width:0.114"
       d="m 61.262425,164.44541 -0.483686,-1.88614 2.981375,-0.76455 0.101667,0.39645 -2.628976,0.67418 0.382019,1.48969 z m 2.827353,-0.0722 -0.134188,-0.41717 0.383713,-0.12343 0.134188,0.41717 z m -2.573553,0.80177 -0.118997,-0.36994 2.197987,-0.70702 0.118997,0.36994 z m 1.168771,2.37788 q -0.545989,0.21567 -0.899647,0.0687 -0.353657,-0.147 -0.557182,-0.66223 -0.06759,-0.17111 -0.107147,-0.34439 -0.04072,-0.1706 -0.05878,-0.34571 l 0.36912,-0.14581 0.0076,0.0192 q 3.29e-4,0.10211 0.02629,0.3141 0.02403,0.21275 0.09998,0.405 0.0729,0.18456 0.164965,0.28822 0.09206,0.10365 0.197463,0.1398 0.101557,0.0377 0.218686,0.0247 0.117129,-0.0129 0.247859,-0.0646 l 0.196094,-0.0775 q -0.19528,-0.11177 -0.31988,-0.2359 -0.121918,-0.12297 -0.213049,-0.35367 -0.151884,-0.3845 0.03534,-0.72071 0.18991,-0.33505 0.695527,-0.53478 0.27684,-0.10936 0.507156,-0.11144 0.232999,-9.1e-4 0.432268,0.0759 0.18586,0.0711 0.331463,0.22022 0.147527,0.14842 0.217393,0.32529 0.07366,0.18648 0.08458,0.32663 0.01359,0.14132 -0.0079,0.31203 l 0.101393,-0.0134 0.133658,0.33836 z m 0.203278,-0.49813 1.170802,-0.46248 q 0.0084,-0.17001 -0.01404,-0.30561 -0.01977,-0.13443 -0.06837,-0.25747 -0.11771,-0.29798 -0.385238,-0.39011 -0.267529,-0.0921 -0.648183,0.0583 -0.36143,0.14277 -0.49779,0.34332 -0.136361,0.20054 -0.02017,0.49469 0.06227,0.15764 0.184142,0.29174 0.124552,0.13527 0.278844,0.22767 z m 0.73472,3.01775 -0.175005,-0.34697 1.173791,-0.59204 q 0.14211,-0.0717 0.257386,-0.15065 0.117122,-0.0799 0.164913,-0.15958 0.05424,-0.0852 0.0474,-0.1906 -0.005,-0.10629 -0.07481,-0.24471 -0.07168,-0.14211 -0.220004,-0.26176 -0.148327,-0.11966 -0.328894,-0.20685 l -1.539217,0.77636 -0.175005,-0.34697 2.871728,-1.44845 0.175006,0.34697 -1.039064,0.52408 q 0.216645,0.0945 0.379817,0.22978 0.163172,0.13532 0.255329,0.31803 0.168489,0.33405 0.05575,0.61085 -0.112735,0.27679 -0.491079,0.46762 z m 1.014573,1.66309 q -0.08127,-0.079 -0.164329,-0.18097 -0.082,-0.10024 -0.134204,-0.18703 -0.182187,-0.3029 -0.114047,-0.55857 0.06814,-0.25566 0.427719,-0.47194 l 1.052168,-0.63286 -0.135308,-0.22496 0.27987,-0.16834 0.135308,0.22496 0.568596,-0.342 0.200299,0.33301 -0.568596,0.342 0.413383,0.68728 -0.27987,0.16833 -0.413383,-0.68727 -0.901605,0.5423 q -0.155877,0.0937 -0.240182,0.15411 -0.08253,0.0593 -0.13313,0.14762 -0.04741,0.0816 -0.04058,0.16913 0.0097,0.0883 0.09384,0.2282 0.04901,0.0815 0.125307,0.1562 0.07807,0.0736 0.117451,0.10303 l 0.01065,0.0177 z m 2.357468,3.24806 -1.254052,-1.5935 2.418681,-1.90345 1.254052,1.59351 -0.285889,0.22498 -1.00094,-1.27188 -0.662741,0.52157 1.00094,1.27188 -0.285888,0.22498 -1.000941,-1.27187 -0.898274,0.70692 1.00094,1.27188 z m 1.737863,1.86601 -0.267259,-0.28211 0.954383,-0.90413 q 0.115547,-0.10946 0.203293,-0.21822 0.08925,-0.11017 0.112151,-0.2002 0.02749,-0.0972 -0.0093,-0.19619 -0.0353,-0.10038 -0.141921,-0.21292 -0.109462,-0.11555 -0.285898,-0.18758 -0.176437,-0.072 -0.374434,-0.1037 l -1.251503,1.1856 -0.267258,-0.28211 1.676173,-1.58792 0.267258,0.28212 -0.186075,0.17627 q 0.234644,0.0283 0.429798,0.11105 0.195154,0.0828 0.335891,0.23133 0.257307,0.27161 0.228793,0.56912 -0.02852,0.29751 -0.336139,0.58894 z m 1.990943,1.79365 -0.291957,-0.25647 0.867629,-0.98768 q 0.105043,-0.11958 0.182468,-0.2359 0.07879,-0.11788 0.09336,-0.20964 0.01847,-0.0993 -0.02723,-0.1945 -0.04434,-0.0967 -0.160813,-0.19905 -0.119578,-0.10504 -0.301866,-0.16062 -0.182288,-0.0556 -0.382354,-0.069 l -1.13774,1.29517 -0.291956,-0.25647 2.12269,-2.4164 0.291957,0.25647 -0.768043,0.87431 q 0.236247,0.007 0.438157,0.0712 0.20191,0.0646 0.355653,0.19962 0.281086,0.24692 0.27992,0.54579 -0.0012,0.29887 -0.280827,0.61723 z m 2.035232,1.52525 -0.312,-0.22818 0.145208,-0.19855 q -0.06246,-0.002 -0.172026,-0.003 -0.106683,-0.001 -0.195385,-0.02 -0.106483,-0.019 -0.226562,-0.0684 -0.1213,-0.0477 -0.258113,-0.1478 -0.251936,-0.18425 -0.3051,-0.47922 -0.05316,-0.29497 0.135973,-0.55358 0.15497,-0.2119 0.340245,-0.27614 0.188163,-0.0647 0.411588,-0.0165 0.225093,0.0494 0.483206,0.19718 0.258112,0.1478 0.541501,0.33457 l 0.03539,-0.0484 q 0.0781,-0.10678 0.09097,-0.20492 0.01454,-0.0969 -0.02624,-0.18821 -0.03867,-0.0872 -0.122344,-0.16887 -0.08367,-0.0817 -0.185447,-0.15611 -0.123466,-0.0903 -0.2997,-0.16797 -0.175014,-0.0793 -0.382003,-0.13597 l -0.01668,-0.0122 0.233065,-0.31867 q 0.110069,0.0421 0.305552,0.13896 0.195484,0.0969 0.363998,0.22012 0.196877,0.14398 0.317628,0.28351 0.123639,0.13908 0.173069,0.2956 0.04898,0.15362 0.01496,0.31569 -0.03402,0.16206 -0.165804,0.34225 z m 0.02356,-0.68701 0.379494,-0.51889 q -0.149588,-0.0966 -0.357,-0.22268 -0.205743,-0.12486 -0.342382,-0.17614 -0.163211,-0.0605 -0.306425,-0.0397 -0.141994,0.0191 -0.245714,0.16089 -0.117143,0.16018 -0.08016,0.3127 0.0382,0.15086 0.236745,0.29607 0.165176,0.1208 0.348359,0.15746 0.184402,0.035 0.367087,0.0303 z m 2.253096,2.10012 -0.332882,-0.20051 0.678326,-1.12613 q 0.08212,-0.13634 0.137648,-0.26458 0.05659,-0.13 0.05462,-0.22288 5.29e-4,-0.10103 -0.06136,-0.18657 -0.06082,-0.0873 -0.193621,-0.1673 -0.13634,-0.0821 -0.325603,-0.10443 -0.189264,-0.0223 -0.38853,3e-5 l -0.889503,1.47672 -0.332881,-0.20051 1.191336,-1.97781 0.332882,0.20051 -0.132252,0.21956 q 0.233675,-0.0354 0.443844,-0.008 0.210169,0.0277 0.385463,0.13325 0.320487,0.19304 0.372445,0.48736 0.05196,0.29433 -0.166685,0.65731 z m 2.25754,0.9763 q -0.215404,-0.003 -0.395826,-0.0341 -0.178569,-0.0305 -0.35465,-0.11746 -0.224271,-0.11072 -0.379445,-0.26802 -0.15426,-0.15914 -0.221826,-0.35848 -0.06942,-0.20025 -0.0429,-0.44073 0.02652,-0.24049 0.161031,-0.51295 0.250726,-0.50785 0.671497,-0.65974 0.422624,-0.15097 0.880434,0.075 0.177934,0.0879 0.323747,0.22208 0.147667,0.13514 0.254698,0.27789 l -0.191247,0.38738 -0.01853,-0.009 q -0.09809,-0.20288 -0.235668,-0.35379 -0.135725,-0.15 -0.296978,-0.22961 -0.296556,-0.14641 -0.567756,-0.0313 -0.268432,0.11413 -0.458764,0.49966 -0.184841,0.3744 -0.117769,0.65879 0.06984,0.28344 0.373811,0.43351 0.105648,0.0522 0.228729,0.0784 0.123081,0.0262 0.232156,0.0247 0.09521,-10e-4 0.182981,-0.0111 0.08869,-0.0115 0.143166,-0.0238 l 0.01853,0.009 z m 2.601362,0.006 -1.581262,-0.62741 q -0.07852,0.1979 -0.07766,0.36947 0.0016,0.16966 0.06802,0.30497 0.06332,0.13186 0.181436,0.2321 0.12004,0.101 0.285275,0.16657 0.219033,0.0869 0.474293,0.0881 0.257943,5e-5 0.385632,-0.0471 l 0.01921,0.008 -0.156281,0.39388 q -0.213021,0.004 -0.423817,-0.0192 -0.210796,-0.0236 -0.420222,-0.10669 -0.534132,-0.21193 -0.719509,-0.61906 -0.184615,-0.40905 0.02656,-0.94126 0.208883,-0.52644 0.617901,-0.72219 0.410938,-0.19498 0.879745,-0.009 0.434223,0.17229 0.567997,0.51891 0.135695,0.34739 -0.04956,0.81427 z m -0.241827,-0.41618 q 0.110906,-0.28512 0.03048,-0.49717 -0.07851,-0.21128 -0.366709,-0.32563 -0.290122,-0.11511 -0.530892,-0.0127 -0.238848,0.10315 -0.362534,0.34761 z m 2.185394,2.17478 -0.372439,-0.11093 0.06903,-0.23178 q -0.201767,0.0909 -0.399111,0.11622 -0.197344,0.0253 -0.401393,-0.0354 -0.396211,-0.11801 -0.539112,-0.49271 -0.140919,-0.37412 0.02016,-0.91495 0.08379,-0.28131 0.22852,-0.47761 0.146717,-0.1957 0.329432,-0.30951 0.179554,-0.11044 0.38145,-0.13658 0.203877,-0.0255 0.39604,0.0317 0.174333,0.0519 0.297834,0.12969 0.124091,0.0758 0.24966,0.19729 l 0.285574,-0.95883 0.372438,0.11093 z m -0.210181,-0.65572 0.378209,-1.26985 q -0.130499,-0.1122 -0.241692,-0.17336 -0.111193,-0.0611 -0.251848,-0.10304 -0.313007,-0.0932 -0.552243,0.0728 -0.239237,0.16599 -0.358423,0.56616 -0.117415,0.39423 -0.04407,0.64038 0.07394,0.24417 0.371098,0.33268 0.158484,0.0472 0.341582,0.0263 0.183687,-0.0229 0.357384,-0.092 z m 5.014426,1.28768 q -0.265649,0.0802 -0.574433,0.12514 -0.306454,0.0432 -0.582881,0.005 -0.356284,-0.0492 -0.639608,-0.18853 -0.283325,-0.1393 -0.465024,-0.36473 -0.183464,-0.22775 -0.257111,-0.5405 -0.07336,-0.31479 -0.0182,-0.71407 0.10099,-0.731 0.585166,-1.09397 0.486507,-0.36473 1.231836,-0.26176 0.260046,0.0359 0.521561,0.13675 0.263845,0.0991 0.556479,0.2918 l -0.06648,0.48119 -0.03686,-0.005 q -0.05669,-0.0579 -0.166463,-0.15446 -0.109776,-0.0966 -0.219135,-0.16591 -0.132515,-0.083 -0.307047,-0.14884 -0.172201,-0.0676 -0.399486,-0.099 -0.511902,-0.0707 -0.856397,0.21764 -0.342164,0.2866 -0.419674,0.84765 -0.08175,0.59175 0.183938,0.96442 0.265975,0.37061 0.802448,0.44473 0.19657,0.0272 0.396468,0.0151 0.201945,-0.0118 0.357859,-0.0528 l 0.103253,-0.74738 -0.816996,-0.11287 0.04922,-0.35628 1.218327,0.16831 z m 2.567115,0.33253 -0.388365,-0.0137 0.009,-0.25616 q -0.201721,0.148 -0.384362,0.22428 -0.18264,0.0763 -0.399546,0.0686 -0.363575,-0.0128 -0.558212,-0.24103 -0.194564,-0.23025 -0.179387,-0.65993 l 0.0529,-1.49768 0.388364,0.0137 -0.04641,1.31382 q -0.0062,0.17559 0.0059,0.30219 0.01215,0.12453 0.06272,0.21525 0.05256,0.0929 0.139933,0.13732 0.08737,0.0444 0.256762,0.0504 0.150801,0.005 0.33123,-0.0669 0.182494,-0.0721 0.341732,-0.18856 l 0.06086,-1.72285 0.388364,0.0137 z m 1.100809,-2.72991 -0.438014,0.0133 -0.01225,-0.40289 0.438014,-0.0133 z m 0.0571,2.69495 -0.388427,0.0118 -0.07015,-2.30784 0.388427,-0.0118 z m 2.633641,-0.20263 -0.38684,0.037 -0.02303,-0.24075 q -0.152891,0.15998 -0.326288,0.25755 -0.173397,0.0976 -0.385336,0.11785 -0.411532,0.0394 -0.684651,-0.25428 -0.271062,-0.29385 -0.324803,-0.85559 -0.02795,-0.29218 0.0325,-0.52846 0.06251,-0.23647 0.189137,-0.41055 0.12496,-0.16977 0.302276,-0.26979 0.179373,-0.10022 0.378966,-0.11932 0.181074,-0.0173 0.324735,0.008 0.143464,0.0237 0.305466,0.0891 l -0.09528,-0.99591 0.38684,-0.037 z m -0.440975,-0.52885 -0.126183,-1.31896 q -0.163075,-0.055 -0.289094,-0.0699 -0.126019,-0.0149 -0.272112,-9.6e-4 -0.325111,0.0311 -0.484531,0.27477 -0.15942,0.24367 -0.119656,0.65931 0.03917,0.40948 0.199567,0.61009 0.160197,0.19855 0.468846,0.16902 0.164613,-0.0157 0.326452,-0.10391 0.161641,-0.0902 0.296711,-0.21942 z m 2.895949,-1.02852 -1.672584,0.31064 q 0.03888,0.20933 0.130943,0.35411 0.09169,0.14276 0.219927,0.22196 0.123797,0.0779 0.27715,0.0999 0.155384,0.0216 0.330162,-0.0109 0.231683,-0.043 0.448412,-0.17789 0.218384,-0.13727 0.301359,-0.24518 l 0.02032,-0.004 0.07738,0.41662 q -0.177971,0.11715 -0.368978,0.20939 -0.191006,0.0922 -0.412527,0.13339 -0.56498,0.10493 -0.938637,-0.14103 -0.374034,-0.248 -0.478588,-0.81095 -0.103423,-0.55685 0.13862,-0.94029 0.244076,-0.38382 0.739957,-0.47591 0.4593,-0.0853 0.757065,0.13691 0.299797,0.22183 0.391518,0.71568 z m -0.426264,-0.22358 q -0.0579,-0.3004 -0.23886,-0.43709 -0.178931,-0.13706 -0.483777,-0.0804 -0.306877,0.057 -0.456191,0.27184 -0.147281,0.21447 -0.121845,0.48726 z m 3.007736,0.67765 -0.374331,0.10437 -0.06495,-0.23297 q -0.122423,0.18435 -0.275992,0.31085 -0.153569,0.1265 -0.358655,0.18368 -0.398224,0.11102 -0.718664,-0.13011 -0.318449,-0.24168 -0.469995,-0.78526 -0.07883,-0.28274 -0.0608,-0.52595 0.02002,-0.24378 0.114106,-0.43739 0.09321,-0.18907 0.250204,-0.31868 0.158988,-0.13016 0.352127,-0.184 0.175218,-0.0489 0.321162,-0.0488 0.145388,-0.002 0.316372,0.0341 l -0.268676,-0.9637 0.374331,-0.10436 z m -0.526988,-0.44319 -0.355828,-1.27631 q -0.170199,-0.0255 -0.296883,-0.0181 -0.126684,0.007 -0.268054,0.0468 -0.314597,0.0877 -0.428753,0.35558 -0.114156,0.26787 -0.002,0.67008 0.110468,0.39623 0.303596,0.56556 0.192573,0.16734 0.491241,0.0841 0.15929,-0.0444 0.303133,-0.15962 0.143288,-0.1172 0.253571,-0.26811 z m 3.651724,-3.74272 q 0.25659,0.11078 0.47054,0.34294 0.21584,0.23132 0.37264,0.57783 0.15679,0.34651 0.18705,0.66407 0.0313,0.31483 -0.0537,0.57334 -0.0872,0.26861 -0.28102,0.47202 -0.19195,0.20257 -0.49515,0.33976 -0.29566,0.13379 -0.58291,0.14579 -0.28537,0.0111 -0.53922,-0.0986 -0.253854,-0.10975 -0.468842,-0.33918 -0.213104,-0.23028 -0.370752,-0.57868 -0.155091,-0.34275 -0.187405,-0.65483 -0.03317,-0.31398 0.05232,-0.58635 0.08221,-0.25954 0.282722,-0.46825 0.202392,-0.20956 0.492407,-0.34079 0.30132,-0.13634 0.58565,-0.14476 0.28537,-0.0111 0.53563,0.0957 z m 0.45523,1.09631 q -0.24712,-0.54613 -0.62573,-0.73102 -0.37946,-0.18677 -0.80318,0.005 -0.427497,0.19344 -0.537677,0.60177 -0.10915,0.40559 0.137973,0.95173 0.249684,0.55179 0.631204,0.73309 0.38067,0.17941 0.79874,-0.01 0.41808,-0.18918 0.5327,-0.59271 0.11565,-0.40627 -0.13403,-0.95806 z m 2.72829,-1.11597 q 0.14556,0.25012 0.19054,0.4918 0.0468,0.24064 0.006,0.44608 -0.0447,0.21495 -0.15498,0.37479 -0.11131,0.15804 -0.29353,0.26409 -0.16973,0.0988 -0.32048,0.1315 -0.14972,0.0345 -0.3125,0.0384 l 0.0326,0.10538 -0.31444,0.18298 -1.61775,-2.77987 0.33588,-0.19546 0.57806,0.99332 q 0.0736,-0.19826 0.18993,-0.36404 0.11534,-0.16757 0.31365,-0.28297 0.35374,-0.20586 0.71544,-0.0528 0.36348,0.15199 0.65147,0.64687 z m -0.34139,0.21063 q -0.20794,-0.35731 -0.43294,-0.47271 -0.22604,-0.11718 -0.48866,0.0357 -0.1465,0.0853 -0.25914,0.23691 -0.11368,0.14986 -0.18409,0.32477 l 0.6654,1.14339 q 0.18035,-0.0189 0.29674,-0.0531 0.11818,-0.0353 0.2486,-0.11119 0.2787,-0.16219 0.32987,-0.43591 0.0519,-0.27655 -0.17578,-0.6678 z m 0.50937,-2.1765 -0.36239,0.24638 -0.22663,-0.33334 0.3624,-0.24638 z m 1.52635,2.28916 q 0.22778,0.33504 0.17306,0.6222 -0.0547,0.28716 -0.3419,0.48241 -0.0684,0.0465 -0.1905,0.10951 -0.12041,0.0619 -0.20957,0.0925 l -0.20803,-0.30598 0.0171,-0.0116 q 0.0607,-0.0137 0.15726,-0.0444 0.0983,-0.0319 0.17525,-0.0841 0.12308,-0.0837 0.17505,-0.169 0.052,-0.0853 0.0431,-0.17927 -0.009,-0.094 -0.0649,-0.19836 -0.0531,-0.10386 -0.14726,-0.24232 l -1.04596,-1.53846 -0.39829,0.27078 -0.18362,-0.27008 0.71966,-0.48928 z m 1.42857,-2.55141 -1.33853,1.04994 q 0.1314,0.16752 0.28005,0.2532 0.14738,0.0841 0.29771,0.0949 0.14581,0.0117 0.2919,-0.0398 0.14772,-0.0528 0.28759,-0.16253 0.18541,-0.14544 0.31504,-0.36534 0.12998,-0.2228 0.15354,-0.35687 l 0.0163,-0.0128 0.26153,0.33341 q -0.10348,0.18625 -0.23005,0.35647 -0.12656,0.17021 -0.30384,0.30926 -0.45214,0.35466 -0.89722,0.30972 -0.44636,-0.0466 -0.79974,-0.49709 -0.34956,-0.44563 -0.31262,-0.89757 0.0386,-0.45321 0.43541,-0.76449 0.36757,-0.28832 0.73439,-0.22928 0.36844,0.0578 0.67845,0.45299 z m -0.48134,-7.4e-4 q -0.19044,-0.23943 -0.41413,-0.27677 -0.22206,-0.0386 -0.46602,0.15276 -0.24559,0.19263 -0.27842,0.4522 -0.0312,0.25829 0.11767,0.48829 z m 2.76516,-0.78073 q -0.0796,0.20019 -0.17352,0.35739 -0.0924,0.1558 -0.23666,0.28908 -0.18368,0.16976 -0.38611,0.25833 -0.20382,0.0871 -0.41414,0.0788 -0.21182,-0.007 -0.42687,-0.11775 -0.21505,-0.11086 -0.42128,-0.33402 -0.38441,-0.41594 -0.37557,-0.86319 0.0104,-0.44866 0.38532,-0.79519 0.14573,-0.13469 0.32327,-0.22277 0.17906,-0.0895 0.35066,-0.13832 l 0.29322,0.31727 -0.0152,0.014 q -0.22455,0.0189 -0.41472,0.0934 -0.18864,0.073 -0.32071,0.19508 -0.24289,0.22447 -0.23255,0.51889 0.0105,0.29151 0.30227,0.60726 0.2834,0.30664 0.57295,0.34584 0.28966,0.0363 0.53862,-0.1938 0.0865,-0.08 0.15504,-0.18552 0.0685,-0.10554 0.1062,-0.20791 0.0328,-0.0894 0.0552,-0.17483 0.021,-0.0869 0.029,-0.1422 l 0.0152,-0.014 z m 1.25029,-1.14129 q -0.0543,0.0994 -0.13042,0.20675 -0.0746,0.10582 -0.14431,0.17934 -0.24313,0.25657 -0.50771,0.25929 -0.26458,0.003 -0.56916,-0.28589 l -0.89123,-0.84456 -0.18057,0.19055 -0.23706,-0.22465 0.18057,-0.19055 -0.48163,-0.4564 0.2673,-0.28207 0.48163,0.4564 0.55166,-0.58215 0.23706,0.22464 -0.55166,0.58216 0.7637,0.7237 q 0.13203,0.12512 0.21274,0.19021 0.0792,0.0637 0.17785,0.0888 0.0913,0.0239 0.17383,-0.006 0.0825,-0.0329 0.19478,-0.15145 0.0654,-0.069 0.11699,-0.16252 0.0501,-0.0949 0.0679,-0.14073 l 0.0142,-0.015 z m 1.90885,-3.82868 q 0.14536,0.10589 0.23747,0.27784 0.0933,0.17028 0.10307,0.36405 0.01,0.21156 -0.0605,0.43414 -0.0689,0.22092 -0.25142,0.47154 -0.19595,0.26899 -0.40307,0.44801 -0.20591,0.17735 -0.46635,0.32775 l -0.41435,-0.30183 0.017,-0.0234 q 0.29458,-0.0744 0.55992,-0.2596 0.26533,-0.1852 0.42355,-0.4024 0.22394,-0.30742 0.23279,-0.56182 0.0101,-0.25607 -0.18206,-0.39603 -0.16541,-0.12049 -0.30357,-0.0958 -0.13695,0.023 -0.30087,0.15676 -0.1247,0.10096 -0.25352,0.23217 -0.1276,0.12954 -0.28029,0.26893 -0.31115,0.2797 -0.59674,0.31717 -0.28604,0.0346 -0.55837,-0.1638 -0.31244,-0.22759 -0.31897,-0.6364 -0.008,-0.41003 0.28755,-0.81603 0.19108,-0.26231 0.40064,-0.44467 0.20955,-0.18236 0.40599,-0.29755 l 0.39096,0.28479 -0.017,0.0234 q -0.22374,0.0544 -0.47144,0.22942 -0.24815,0.17215 -0.42462,0.41441 -0.19352,0.26566 -0.2013,0.50805 -0.007,0.24072 0.1672,0.36729 0.15538,0.11319 0.30235,0.0975 0.14697,-0.0157 0.34101,-0.18378 0.10129,-0.0899 0.27831,-0.2627 0.17703,-0.17281 0.31192,-0.28425 0.27554,-0.2238 0.52647,-0.25583 0.25094,-0.032 0.51826,0.1627 z m 1.0575,-2.29564 q 0.48514,0.28825 0.6181,0.70386 0.13296,0.4156 -0.11516,0.83321 -0.25024,0.42117 -0.67883,0.50313 -0.42753,0.0802 -0.91267,-0.20805 -0.48514,-0.28824 -0.61915,-0.70207 -0.13474,-0.41667 0.11549,-0.83783 0.24813,-0.41761 0.67849,-0.49852 0.4286,-0.082 0.91373,0.20627 z m -0.20483,0.34475 q -0.38562,-0.22911 -0.66196,-0.18893 -0.27811,0.0391 -0.43754,0.30747 -0.16154,0.27189 -0.0629,0.53486 0.0979,0.26014 0.48352,0.48925 0.37318,0.22173 0.65663,0.18576 0.28167,-0.037 0.44215,-0.30713 0.15838,-0.26656 0.058,-0.53058 -0.10112,-0.26686 -0.47786,-0.4907 z m 0.41969,-2.42353 -0.009,0.0185 q -0.0571,0.0685 -0.10135,0.13891 -0.0451,0.0676 -0.0948,0.16755 -0.08,0.16104 -0.0824,0.34685 -0.004,0.18489 0.0397,0.37984 l 1.46788,0.72954 -0.17296,0.348 -2.06761,-1.02762 0.17296,-0.34799 0.30542,0.15179 q -0.0636,-0.29011 -0.0539,-0.48149 0.009,-0.19415 0.0907,-0.35889 0.0451,-0.0907 0.0709,-0.12866 0.0239,-0.0389 0.0774,-0.11389 z m 2.27861,-0.61111 q -0.0162,0.11215 -0.05,0.23928 -0.033,0.12522 -0.0726,0.21844 -0.13823,0.32532 -0.3852,0.42026 -0.24697,0.0949 -0.63317,-0.0692 l -1.13004,-0.48019 -0.10266,0.24161 -0.30059,-0.12772 0.10267,-0.24161 -0.61068,-0.2595 0.15198,-0.35765 0.61068,0.25949 0.31366,-0.73814 0.30058,0.12773 -0.31366,0.73814 0.96834,0.41147 q 0.16741,0.0711 0.26576,0.10395 0.0965,0.032 0.19766,0.0211 0.0939,-0.01 0.16075,-0.0665 0.0658,-0.0596 0.12963,-0.20993 0.0372,-0.0875 0.0529,-0.19314 0.0138,-0.10644 0.0144,-0.15557 l 0.008,-0.019 z m -0.23583,-2.61864 -0.55148,1.60932 q 0.20141,0.069 0.37275,0.06 0.16939,-0.01 0.30139,-0.0824 0.1287,-0.0695 0.22321,-0.19227 0.0952,-0.12471 0.1528,-0.29288 0.0764,-0.22292 0.0655,-0.47795 -0.0122,-0.25765 -0.0654,-0.38295 l 0.007,-0.0196 0.40087,0.13737 q 0.0146,0.21257 0.001,0.42425 -0.0135,0.21168 -0.0866,0.42482 -0.18628,0.54361 -0.58413,0.74815 -0.3998,0.20386 -0.94145,0.0182 -0.53579,-0.1836 -0.75077,-0.58285 -0.21432,-0.40119 -0.0508,-0.87832 0.15144,-0.44193 0.49131,-0.59204 0.34054,-0.15207 0.81571,0.0108 z m -0.40421,0.26136 q -0.29007,-0.0972 -0.49805,-0.007 -0.2073,0.0885 -0.30781,0.38179 -0.10119,0.29527 0.0125,0.53089 0.11439,0.23367 0.36447,0.34559 z m 0.15102,-2.34193 -0.005,0.02 q -0.042,0.0787 -0.0709,0.15664 -0.0304,0.0754 -0.0587,0.18335 -0.0456,0.17397 -0.01,0.35636 0.0336,0.18186 0.11628,0.36378 l 1.58572,0.41521 -0.0984,0.37593 -2.2336,-0.58486 0.0984,-0.37593 0.32994,0.0864 q -0.12132,-0.27109 -0.15081,-0.46043 -0.0309,-0.19187 0.0157,-0.36983 0.0256,-0.098 0.0432,-0.14041 0.0155,-0.0429 0.0526,-0.12726 z"
       id="text147"
       aria-label="Light Enhanced Guided Object Sorter" />
  </g>
</svg>
